{"title":"The Time Machine(1960)MP-4[DaScubaDude]","uid":12358641,"size":1255981114,"categoryP":"video","categoryS":"movies","magnet":"?xt=urn:btih:2eca2d636fc9d9da78a333c0da70c8db1a1a083f&amp;dn=The+Time+Machine%281960%29MP-4%5BDaScubaDude%5D&amp;tr=udp%3A%2F%2Ftracker.openbittorrent.com%3A80&amp;tr=udp%3A%2F%2Fopen.demonii.com%3A1337&amp;tr=udp%3A%2F%2Ftracker.coppersurfer.tk%3A6969&amp;tr=udp%3A%2F%2Fexodus.desync.com%3A6969","seeders":2,"leechers":0,"uploader":"dascuba","files":1,"time":1441505248,"description":"The Time Machine (1960)\nApproved  |  103 min  |  Adventure, Fantasy, Romance  |  17 August 1960 (USA)\n7.6 Your rating:   -/10   Ratings: 7.6/10 from 24,715 users   \nReviews: 195 user | 73 critic\nA man's vision for an utopian society is disillusioned when travelling forward into time reveals a dark and dangerous society.\n\nDirector: George Pal\nWriters: David Duncan (screenplay), H.G. Wells (novel)\nStars: Rod Taylor, Alan Young, Yvette Mimieux \n\nGeneral\nComplete name                        : C:The Time MachineTIME_MACHINE_Title1.mp4\nFormat                                   : MPEG-4\nFormat profile                           : Base Media\nCodec ID                                 : isom\nFile size                                : 1.17 GiB\nDuration                                 : 1h 42mn\nOverall bit rate mode                    : Constant\nOverall bit rate                         : 1 633 Kbps\nMovie name                               : TIME_MACHINE\nGenre                                    : Science_Fiction\nWriting application                      : Lavf54.6.100\n\nVideo\nID                                       : 1\nFormat                                   : MPEG-4 Visual\nFormat settings, BVOP                    : No\nFormat settings, QPel                    : No\nFormat settings, GMC                     : No warppoints\nFormat settings, Matrix                  : Default (H.263)\nCodec ID                                 : 20\nDuration                                 : 1h 42mn\nBit rate mode                            : Constant\nBit rate                                 : 1 499 Kbps\nWidth                                    : 720 pixels\nHeight                                   : 404 pixels\nDisplay aspect ratio                     : 16:9\nFrame rate mode                          : Constant\nFrame rate                               : 29.970 fps\nColor space                              : YUV\nChroma subsampling                       : 4:2:0\nBit depth                                : 8 bits\nScan type                                : Progressive\nCompression mode                         : Lossy\nBits/(Pixel*Frame)                       : 0.172\nStream size                              : 1.07 GiB (92%)\nWriting library                          : Lavc54.23.100\n\nAudio\nID                                       : 2\nFormat                                   : MPEG Audio\nFormat version                           : Version 1\nFormat profile                           : Layer 3\nCodec ID                                 : 6B\nDuration                                 : 1h 42mn\nBit rate mode                            : Constant\nBit rate                                 : 128 Kbps\nChannel(s)                               : 2 channels\nSampling rate                            : 44.1 KHz\nCompression mode                         : Lossy\nStream size                              : 93.9 MiB (8%)","torrent":{"xt":"urn:btih:2eca2d636fc9d9da78a333c0da70c8db1a1a083f","amp;dn":"The+Time+Machine%281960%29MP-4%5BDaScubaDude%5D","amp;tr":["udp%3A%2F%2Ftracker.openbittorrent.com%3A80","udp%3A%2F%2Fopen.demonii.com%3A1337","udp%3A%2F%2Ftracker.coppersurfer.tk%3A6969","udp%3A%2F%2Fexodus.desync.com%3A6969"],"infoHash":"2eca2d636fc9d9da78a333c0da70c8db1a1a083f","infoHashBuffer":{"type":"Buffer","data":[46,202,45,99,111,201,217,218,120,163,51,192,218,112,200,219,26,26,8,63]},"announce":[],"urlList":[]}}